<svg class="ldi-ogx6my" width="152px"  height="152px"  xmlns="http://www.w3.org/2000/svg" xmlns:xlink="http://www.w3.org/1999/xlink" viewBox="0 0 100 100" preserveAspectRatio="xMidYMid" style="background: none;"><!--?xml version="1.0" encoding="utf-8"?--><!--Generator: Adobe Illustrator 21.0.0, SVG Export Plug-In . SVG Version: 6.00 Build 0)--><svg version="1.1" id="Layer_1" xmlns="http://www.w3.org/2000/svg" xmlns:xlink="http://www.w3.org/1999/xlink" x="0px" y="0px" viewBox="0 0 100 100" style="transform-origin: 50px 50px 0px;" xml:space="preserve"><g style="transform-origin: 50px 50px 0px;"><g style="transform-origin: 50px 50px 0px; transform: scale(1);"><g style="transform-origin: 50px 50px 0px;"><g><g style="transform-origin: 50px 50px 0px;"><g><g class="ld ld-cycle" style="transform-origin: 50px 50px 0px; animation-duration: 2s; animation-delay: -2s; animation-direction: normal;"><path style="fill: rgb(142, 217, 46);" d="M75.26,56.878l-2.535,6.119c-0.415,1.002-1.563,1.478-2.565,1.063l-2.212-0.916 c-0.769-0.319-1.663-0.123-2.208,0.505c-0.649,0.748-1.347,1.443-2.087,2.083c-0.631,0.546-0.829,1.441-0.51,2.212l0.918,2.216 c0.415,1.002-0.061,2.15-1.063,2.565l-6.119,2.535c-1.002,0.415-2.15-0.061-2.565-1.063l-0.918-2.216 c-0.319-0.771-1.092-1.264-1.925-1.204c-0.976,0.071-1.961,0.073-2.949,0.003c-0.83-0.059-1.6,0.435-1.919,1.204l-0.916,2.212 c-0.415,1.002-1.563,1.478-2.565,1.063l-6.119-2.535c-1.002-0.415-1.478-1.563-1.063-2.565l0.916-2.212 c0.319-0.769,0.123-1.663-0.505-2.208c-0.748-0.649-1.443-1.347-2.083-2.087c-0.546-0.631-1.441-0.829-2.212-0.51L29.84,64.06 c-1.002,0.415-2.15-0.061-2.565-1.063l-2.535-6.119c-0.415-1.002,0.061-2.15,1.063-2.565l2.216-0.918 c0.771-0.319,1.264-1.092,1.204-1.925c-0.071-0.976-0.073-1.961-0.003-2.949c0.059-0.83-0.435-1.6-1.204-1.919l-2.212-0.916 c-1.002-0.415-1.478-1.563-1.063-2.565l2.535-6.119c0.415-1.002,1.563-1.478,2.565-1.063l2.212,0.916 c0.769,0.319,1.663,0.123,2.208-0.505c0.649-0.748,1.347-1.443,2.087-2.083c0.631-0.546,0.829-1.441,0.51-2.212L35.94,29.84 c-0.415-1.002,0.061-2.15,1.063-2.565l6.119-2.535c1.002-0.415,2.15,0.061,2.565,1.063l0.918,2.216 c0.319,0.771,1.092,1.264,1.925,1.204c0.976-0.071,1.961-0.073,2.949-0.003c0.83,0.059,1.6-0.435,1.919-1.204l0.916-2.212 c0.415-1.002,1.563-1.478,2.565-1.063l6.119,2.535c1.002,0.415,1.478,1.563,1.063,2.565l-0.916,2.212 c-0.319,0.769-0.123,1.663,0.505,2.208c0.748,0.649,1.443,1.347,2.083,2.087c0.546,0.631,1.441,0.829,2.212,0.51l2.216-0.918 c1.002-0.415,2.15,0.061,2.565,1.063l2.535,6.119c0.415,1.002-0.061,2.15-1.063,2.565l-2.216,0.918 c-0.771,0.319-1.264,1.092-1.204,1.925c0.071,0.976,0.073,1.961,0.003,2.949c-0.059,0.83,0.435,1.6,1.204,1.919l2.212,0.916 C75.199,54.728,75.675,55.877,75.26,56.878z" fill="#8ed92e"></path></g><g class="ld ld-cycle" style="transform-origin: 50px 50px 0px; animation-duration: 2s; animation-delay: -1.91304s; animation-direction: normal;"><circle style="fill: rgb(73, 157, 68);" cx="50" cy="50" r="15.5" fill="#499d44"></circle></g><g class="ld ld-cycle" style="transform-origin: 50px 50px 0px; animation-duration: 2s; animation-delay: -1.82609s; animation-direction: normal;"><circle cx="50" cy="50" r="9.621" fill="#932323" style="fill: rgb(147, 35, 35);"></circle></g></g></g><g style="transform-origin: 50px 50px 0px;"><g><g style="transform-origin: 50px 50px 0px;"><g><g class="ld ld-cycle" style="transform-origin: 50px 50px 0px; animation-duration: 2s; animation-delay: -1.73913s; animation-direction: normal;"><path style="fill: rgb(255, 255, 255);" d="M50,86.334l2.57-0.085c0.428-0.02,0.86-0.013,1.286-0.054l1.275-0.172 c0.848-0.13,1.71-0.193,2.549-0.375l2.51-0.598c0.851-0.157,1.639-0.521,2.461-0.779c0.812-0.287,1.644-0.531,2.413-0.927 l2.355-1.081l2.243-1.302c2.922-1.835,5.704-3.981,7.998-6.603c2.327-2.575,4.388-5.442,5.874-8.609l0.591-1.172 c0.184-0.396,0.322-0.812,0.486-1.218c0.308-0.818,0.646-1.629,0.933-2.456c0.444-1.693,1.013-3.364,1.231-5.112l0.222-1.3 c0.087-0.432,0.145-0.868,0.159-1.308l0.18-2.635c0.078-1.759,0.016-3.529-0.18-5.284c-0.734-7.032-3.581-13.844-8.035-19.418 c4.645,5.413,7.779,12.18,8.779,19.324c0.262,1.782,0.39,3.588,0.373,5.391l-0.09,2.709c0,0.454-0.043,0.903-0.116,1.35 l-0.181,1.345c-0.164,1.81-0.685,3.552-1.087,5.323c-0.266,0.866-0.585,1.717-0.876,2.578c-0.155,0.427-0.285,0.865-0.461,1.283 l-0.57,1.239c-1.434,3.349-3.475,6.421-5.825,9.211c-2.317,2.836-5.163,5.208-8.197,7.262l-2.336,1.465l-2.466,1.241 c-0.808,0.448-1.683,0.744-2.541,1.081c-0.868,0.307-1.704,0.72-2.606,0.925l-2.672,0.735c-0.896,0.226-1.817,0.331-2.726,0.502 l-1.369,0.231c-0.458,0.06-0.922,0.072-1.383,0.109L50,89.334c-0.826,0.055-1.541-0.57-1.596-1.396 c-0.055-0.826,0.57-1.541,1.396-1.596c0.015-0.001,0.03-0.002,0.044-0.002L50,86.334z" fill="#ffffff"></path></g></g></g><g class="ld ld-cycle" style="transform-origin: 50px 50px 0px; animation-duration: 2s; animation-delay: -1.65217s; animation-direction: normal;"><line style="fill: none; stroke: rgb(255, 255, 255); stroke-width: 3; stroke-linecap: round; stroke-linejoin: round; stroke-miterlimit: 10;" x1="50" y1="87.834" x2="55.832" y2="92.5" stroke="#ffffff"></line></g><g class="ld ld-cycle" style="transform-origin: 50px 50px 0px; animation-duration: 2s; animation-delay: -1.56522s; animation-direction: normal;"><line style="fill: none; stroke: rgb(255, 255, 255); stroke-width: 3; stroke-linecap: round; stroke-linejoin: round; stroke-miterlimit: 10;" x1="50" y1="87.834" x2="54.666" y2="82.002" stroke="#ffffff"></line></g></g></g><g style="transform-origin: 50px 50px 0px;"><g><g style="transform-origin: 50px 50px 0px;"><g><g class="ld ld-cycle" style="transform-origin: 50px 50px 0px; animation-duration: 2s; animation-delay: -1.47826s; animation-direction: normal;"><path style="fill: rgb(255, 255, 255);" d="M50,13.666l-2.563,0.197c-0.426,0.038-0.854,0.052-1.277,0.108l-1.264,0.213 c-0.839,0.157-1.691,0.247-2.517,0.455l-2.466,0.673c-0.835,0.182-1.604,0.569-2.406,0.849c-0.793,0.308-1.6,0.58-2.352,0.982 l-2.296,1.11l-2.18,1.325c-2.834,1.86-5.517,4.015-7.708,6.622c-0.282,0.318-0.579,0.623-0.85,0.95l-0.767,1.018 c-0.497,0.688-1.068,1.327-1.508,2.055l-1.342,2.17c-0.457,0.719-0.771,1.516-1.165,2.269l-0.565,1.146 c-0.176,0.387-0.305,0.794-0.46,1.19c-0.293,0.799-0.623,1.586-0.899,2.392c-0.424,1.649-0.977,3.274-1.181,4.976l-0.213,1.264 c-0.084,0.42-0.139,0.844-0.151,1.273l-0.168,2.563c-0.079,1.71-0.041,3.433,0.139,5.143c0.628,6.863,3.122,13.538,7.037,19.544 c-5.184-4.981-8.67-11.885-9.776-19.198c-0.559-3.655-0.553-7.406,0.002-11.078c0.177-1.857,0.715-3.645,1.137-5.459 c0.276-0.888,0.603-1.762,0.909-2.642c0.163-0.436,0.301-0.883,0.487-1.31l0.596-1.265c3.063-6.808,8.25-12.621,14.553-16.6 c6.28-4.074,13.811-6.03,21.215-5.935c0.828,0.011,1.49,0.69,1.479,1.518c-0.01,0.78-0.614,1.413-1.377,1.474L50,13.666z" fill="#ffffff"></path></g></g></g><g class="ld ld-cycle" style="transform-origin: 50px 50px 0px; animation-duration: 2s; animation-delay: -1.3913s; animation-direction: normal;"><line style="fill: none; stroke: rgb(255, 255, 255); stroke-width: 3; stroke-linecap: round; stroke-linejoin: round; stroke-miterlimit: 10;" x1="50" y1="12.166" x2="44.168" y2="7.5" stroke="#ffffff"></line></g><g class="ld ld-cycle" style="transform-origin: 50px 50px 0px; animation-duration: 2s; animation-delay: -1.30435s; animation-direction: normal;"><line style="fill: none; stroke: rgb(255, 255, 255); stroke-width: 3; stroke-linecap: round; stroke-linejoin: round; stroke-miterlimit: 10;" x1="50" y1="12.166" x2="45.334" y2="17.998" stroke="#ffffff"></line></g></g></g><metadata xmlns:d="https://loading.io/stock/" class="ld ld-cycle" style="transform-origin: 50px 50px 0px; animation-duration: 2s; animation-delay: -1.21739s; animation-direction: normal;">
<d:name class="ld ld-cycle" style="transform-origin: 50px 50px 0px; animation-duration: 2s; animation-delay: -1.13043s; animation-direction: normal;">gear</d:name>
<d:tags class="ld ld-cycle" style="transform-origin: 50px 50px 0px; animation-duration: 2s; animation-delay: -1.04348s; animation-direction: normal;">gear,config,setting,manage,machine,operational,function,active,work,progress,procedure</d:tags>
<d:license class="ld ld-cycle" style="transform-origin: 50px 50px 0px; animation-duration: 2s; animation-delay: -0.956522s; animation-direction: normal;">cc-by</d:license>
<d:slug class="ld ld-cycle" style="transform-origin: 50px 50px 0px; animation-duration: 2s; animation-delay: -0.869565s; animation-direction: normal;">ogx6my</d:slug>
</metadata></g></g></g></g><style type="text/css" class="ld ld-cycle" style="transform-origin: 50px 50px 0px; animation-duration: 2s; animation-delay: -0.782609s; animation-direction: normal;">path,ellipse,circle,rect,polygon,polyline,line { stroke-width: 0; }@keyframes ld-cycle {
  0%, 50%, 100% {
    animation-timing-function: cubic-bezier(0.5, 0.5, 0.5, 0.5);
  }
  0% {
    -webkit-transform: rotate(0);
    transform: rotate(0);
  }
  50% {
    -webkit-transform: rotate(180deg);
    transform: rotate(180deg);
  }
  100% {
    -webkit-transform: rotate(360deg);
    transform: rotate(360deg);
  }
}
@-webkit-keyframes ld-cycle {
  0%, 50%, 100% {
    animation-timing-function: cubic-bezier(0.5, 0.5, 0.5, 0.5);
  }
  0% {
    -webkit-transform: rotate(0);
    transform: rotate(0);
  }
  50% {
    -webkit-transform: rotate(180deg);
    transform: rotate(180deg);
  }
  100% {
    -webkit-transform: rotate(360deg);
    transform: rotate(360deg);
  }
}
.ld.ld-cycle {
  -webkit-animation: ld-cycle 1s infinite linear;
  animation: ld-cycle 1s infinite linear;
}
</style></svg></svg>